<?xml version="1.0" encoding="utf-8"?>
<svg version="1.1" id="Layer_1" xmlns="http://www.w3.org/2000/svg" xmlns:xlink="http://www.w3.org/1999/xlink" x="0px" y="0px"
	 viewBox="0 0 500 300" style="enable-background:new 0 0 500 300;" xml:space="preserve">
<style type="text/css">
	.st0{fill:#FAFBFC;}
	.st1{fill:none;stroke:#B3B3B3;stroke-miterlimit:10;}
	.st2{fill:#666666;}
</style>
<g>
	<rect class="st0" width="500" height="300"/>
</g>
<path class="st1" d="M267.51,158.5h-34.52c-1.65,0-2.99-1.34-2.99-2.99v-11.52c0-1.65,1.34-2.99,2.99-2.99h34.52
	c1.65,0,2.99,1.34,2.99,2.99v11.52C270.5,157.16,269.16,158.5,267.51,158.5z"/>
<g>
	<path class="st2" d="M242.09,154.1l3.07-8h1.76l2.94,8h-1.69l-2.62-7.45l0.72-0.07l-2.6,7.52H242.09z M243.71,152.15l0.4-1.25h3.72
		l0.14,1.25H243.71z"/>
	<path class="st2" d="M250.94,154.1v-8h3.01c1.33,0,2.31,0.34,2.95,1.01c0.64,0.67,0.95,1.67,0.95,2.99c0,1.32-0.32,2.32-0.95,2.99
		c-0.64,0.68-1.62,1.01-2.95,1.01H250.94z M252.58,152.79h1.2c0.81,0,1.41-0.22,1.81-0.65s0.6-1.12,0.6-2.05
		c0-0.94-0.2-1.62-0.6-2.05s-1-0.65-1.81-0.65h-1.2V152.79z"/>
</g>
</svg>
