<?xml version="1.0" encoding="utf-8"?>
<!-- Generator: Adobe Illustrator 26.0.1, SVG Export Plug-In . SVG Version: 6.00 Build 0)  -->
<svg version="1.1" id="Layer_1" xmlns="http://www.w3.org/2000/svg" xmlns:xlink="http://www.w3.org/1999/xlink" x="0px" y="0px"
	 viewBox="0 0 1866 560" style="enable-background:new 0 0 1866 560;" xml:space="preserve">
<style type="text/css">
	.st0{fill:#0678BE;}
	.st1{fill:#FFFFFF;}
	.st2{fill:#333333;}
</style>
<path class="st0" d="M542,559.5H19c-9.94,0-18-8.06-18-18v-524c0-9.94,8.06-18,18-18h523c9.94,0,18,8.06,18,18v524
	C560,551.44,551.94,559.5,542,559.5z"/>
<path class="st1" d="M405.43,445.97L79.5,120.04c-6.64-6.64-6.64-17.4,0-24.04l0,0c6.64-6.64,17.4-6.64,24.04,0l325.93,325.93
	c6.64,6.64,6.64,17.4,0,24.04l0,0C422.83,452.61,412.07,452.61,405.43,445.97z"/>
<circle class="st1" cx="458" cy="474.5" r="19"/>
<path class="st1" d="M437.33,315.96L256.54,135.17c-5.86-5.86-5.86-15.36,0-21.21l2.83-2.83c5.86-5.86,15.36-5.86,21.21,0
	l180.79,180.79c5.86,5.86,5.86,15.36,0,21.21l-2.83,2.83C452.68,321.82,443.19,321.82,437.33,315.96z"/>
<path class="st1" d="M228.86,422.49L35.04,228.67c-5.86-5.86-5.86-15.36,0-21.21l2.83-2.83c5.86-5.86,15.36-5.86,21.21,0
	L252.9,398.45c5.86,5.86,5.86,15.36,0,21.21l-2.83,2.83C244.21,428.35,234.72,428.35,228.86,422.49z"/>
<circle class="st1" cx="492" cy="348.5" r="19"/>
<circle class="st1" cx="286" cy="455.5" r="19"/>
<g>
	<path class="st2" d="M914.53,297.1c-2-37.6-4.4-82.8-4-116.4h-1.2c-9.2,31.6-20.4,65.2-34,102.4l-47.6,130.8h-26.4l-43.6-128.4
		c-12.8-38-23.6-72.8-31.2-104.8h-0.8c-0.8,33.6-2.8,78.8-5.2,119.2l-7.2,115.6h-33.2l18.8-269.6h44.4l46,130.4
		c11.2,33.2,20.4,62.8,27.2,90.8h1.2c6.8-27.2,16.4-56.8,28.4-90.8l48-130.4h44.4l16.8,269.6h-34L914.53,297.1z"/>
	<path class="st2" d="M1029.72,325.1c0.8,47.6,31.2,67.2,66.4,67.2c25.2,0,40.4-4.4,53.6-10l6,25.2c-12.4,5.6-33.6,12-64.4,12
		c-59.6,0-95.2-39.2-95.2-97.6s34.4-104.4,90.8-104.4c63.2,0,80,55.6,80,91.2c0,7.2-0.8,12.8-1.2,16.4H1029.72z M1132.92,299.9
		c0.4-22.4-9.2-57.2-48.8-57.2c-35.6,0-51.2,32.8-54,57.2H1132.92z"/>
	<path class="st2" d="M1252.92,166.3v55.6h50.4v26.8h-50.4v104.4c0,24,6.8,37.6,26.4,37.6c9.2,0,16-1.2,20.4-2.4l1.6,26.4
		c-6.8,2.8-17.6,4.8-31.2,4.8c-16.4,0-29.6-5.2-38-14.8c-10-10.4-13.6-27.6-13.6-50.4V248.7h-30v-26.8h30v-46.4L1252.92,166.3z"/>
	<path class="st2" d="M1360.12,325.1c0.8,47.6,31.2,67.2,66.4,67.2c25.2,0,40.4-4.4,53.6-10l6,25.2c-12.4,5.6-33.6,12-64.4,12
		c-59.6,0-95.2-39.2-95.2-97.6s34.4-104.4,90.8-104.4c63.2,0,80,55.6,80,91.2c0,7.2-0.8,12.8-1.2,16.4H1360.12z M1463.32,299.9
		c0.4-22.4-9.2-57.2-48.8-57.2c-35.6,0-51.2,32.8-54,57.2H1463.32z"/>
	<path class="st2" d="M1716.11,317.1c0,71.6-49.6,102.8-96.4,102.8c-52.4,0-92.8-38.4-92.8-99.6c0-64.8,42.4-102.8,96-102.8
		C1678.51,217.5,1716.11,257.9,1716.11,317.1z M1562.51,319.1c0,42.4,24.4,74.4,58.8,74.4c33.6,0,58.8-31.6,58.8-75.2
		c0-32.8-16.4-74.4-58-74.4S1562.51,282.3,1562.51,319.1z"/>
	<path class="st2" d="M1760.51,282.3c0-22.8-0.4-42.4-1.6-60.4h30.8l1.2,38h1.6c8.8-26,30-42.4,53.6-42.4c4,0,6.8,0.4,10,1.2v33.2
		c-3.6-0.8-7.2-1.2-12-1.2c-24.8,0-42.4,18.8-47.2,45.2c-0.8,4.8-1.6,10.4-1.6,16.4v103.2h-34.8V282.3z"/>
</g>
</svg>
